<svg xmlns="http://www.w3.org/2000/svg" width="56" height="28" viewBox="0 0 14.817 7.408"><g stroke="#a98238" fill="none"><path d="M7.282 7.27L14.691.126M6.753 7.27L14.161.126M6.224 7.27L13.632.126M5.695 7.27L13.103.126M5.166 7.27L12.574.126M4.636 7.27L12.045.126M4.107 7.27L11.516.126M3.578 7.27L10.986.126M3.049 7.27L10.457.126M2.52 7.27L9.928.126M1.99 7.27L9.4.126M1.461 7.27L8.87.126M.932 7.27L8.341.126M.403 7.27L7.811.126" stroke-width=".265"/><path d="M7.282 7.27H-.256" stroke-width=".277" stroke-linecap="round"/><path d="M14.69.126H-.255" stroke-width=".265" stroke-linecap="round" stroke-linejoin="bevel"/></g></svg>