<svg xmlns="http://www.w3.org/2000/svg" width="56" height="28" viewBox="0 0 14.817 7.408"><g stroke="#a98238" fill="none"><path d="M7.543 7.27L.134.126M8.072 7.27L.663.126M8.6 7.27L1.194.126M9.13 7.27L1.722.126M9.66 7.27L2.25.126m7.938 7.144L2.78.126m7.938 7.144L3.309.126m7.938 7.144L3.838.126m7.938 7.144L4.368.126m7.937 7.144L4.897.126m7.937 7.144L5.426.126m7.937 7.144L5.955.126m7.938 7.144L6.484.126m7.938 7.144L7.013.126" stroke-width=".265"/><path d="M7.543 7.27h7.538" stroke-width=".277" stroke-linecap="round"/><path d="M.134.126h14.947" stroke-width=".265" stroke-linecap="round" stroke-linejoin="bevel"/></g></svg>