<svg xmlns="http://www.w3.org/2000/svg" width="256" height="280" viewBox="0 0 67.733 74.083"><defs><filter id="a" x="-.013" width="1.025" y="-.011" height="1.023" color-interpolation-filters="sRGB"><feGaussianBlur stdDeviation=".341"/></filter><filter id="b" x="-.031" width="1.061" y="-.02" height="1.039" color-interpolation-filters="sRGB"><feGaussianBlur stdDeviation=".304"/></filter></defs><path d="M105.833 122.375h-3.968l1.323-6.615h-3.97l1.324-6.614h-2.646v-5.292H48.948v5.292h-2.646l1.323 6.614h-3.969l1.323 6.615H41.01l7.938 38.365v14.552h48.948V160.74z" opacity=".5" fill="none" stroke="#e2a538" stroke-width="1.323" filter="url(#a)" transform="matrix(1 0 0 .9686 -39.531 -97.291)"/><path d="M4.125 22.612h59.531l-9.159 48.604H13.284z" fill="#4d4d4d"/><path d="M6.415 15.984h54.951l-6.869 55.232H13.284z" fill="#6f6f6f"/><path d="M8.704 9.356h50.373l-4.58 61.86H13.284z" fill="#909090"/><path fill="#b4b4b4" d="M10.993 4.938h45.793v66.28H10.993z"/><path transform="matrix(1.73077 0 0 1.67002 -146.993 -225.942)" fill="gray" filter="url(#b)" d="M92.604 139.573h23.813v37.042H92.604z"/><path d="M105.833 122.375h-3.968l1.323-6.615h-3.97l1.324-6.614h-2.646v-5.292H48.948v5.292h-2.646l1.323 6.614h-3.969l1.323 6.615H41.01l7.938 38.365v14.552h48.948V160.74z" fill="none" stroke="#e2a538" stroke-width=".265" transform="matrix(1 0 0 .9686 -39.531 -97.291)"/></svg>